# xmcd
#
# Track frame offsets:
#	150
#	15327
#	28815
#	41640
#	58032
#	71942
#	83514
#	95640
#	109792
#	120781
#	132576
#	145057
#	158363
#	171405
#	180866
#	199763
#	211267
#	227784
#
# Disc length: 3316 seconds
#
# Revision: 1
# Processed by: cddbd v1.5.2PL0 Copyright (c) Steve Scherf et al.
# Submitted via: audiograbber 1.83.01
#
DISCID=ec0cf212
DTITLE=Best Of Country Songs - CD 9
DYEAR=2011
DGENRE=Country
TTITLE0=Johnny Cash - Live - A Boy Named Sue
TTITLE1=Hank Williams Jr. - All My Rowdy Friends Are Coming Over Night
TTITLE2=Rosanne Cash - D-I-V-O-R-C-E
TTITLE3=Lorrie Morgan - You And Me
TTITLE4=George Jones - Take Me To Your World
TTITLE5=Donna Fargo - The Happiest Girl In The Whole USA
TTITLE6=Pave Travis - Jukebox Cadillac
TTITLE7=Bonnie Haggard - Cowboy's Sweetheart
TTITLE8=Charlie Gracie - Butterfly
TTITLE9=Cookie and His Cupcakes - Until Then
TTITLE10=Roy Drusky - I Could Never Be Ashamed Of You
TTITLE11=Zack Van Arsdale - Crossfire
TTITLE12=Roy Head - One Night
TTITLE13=Elvis Presley - Blue Moon Of Kentucky
TTITLE14=Marty Robbins - El Paso
TTITLE15=Crystal Gayle - Don't Make My Brown Eyes Blue
TTITLE16=Ronnie Milsap - It Was Almost Like A Song
TTITLE17=Andre Lamberz and Hill's Angels - The Bluest Eyes Of Texas
EXTD=
EXTT0=
EXTT1=
EXTT2=
EXTT3=
EXTT4=
EXTT5=
EXTT6=
EXTT7=
EXTT8=
EXTT9=
EXTT10=
EXTT11=
EXTT12=
EXTT13=
EXTT14=
EXTT15=
EXTT16=
EXTT17=
PLAYORDER=
